# xmcd CD Database Entry
#
# Track frame offsets:
# 150
# 26068
# 46269
# 73981
# 89292
# 114540
# 131837
# 149444
# 178342
# 189822
# 211847
# 225745
# 241581
# 262513
# 282780
# 303633
# 313621
#
# Disc length: 4436 seconds
#
# Revision: 5
# Processed by: cddbd v1.4PL0 Copyright (c) Steve Scherf et al.
# Submitted via: tcd 2.0b
#
DISCID=ef115211
DTITLE=Hemi-Cuda Holiday
DYEAR=1900
DGENRE=
TTITLE0=Two Trains - Little Feat
TTITLE1=Busload of Faith - Lou Reed
TTITLE2=New Sensations - Lou Reed
TTITLE3=What's Good? - Lou Reed
TTITLE4=Jaws of Life - James McMurtry
TTITLE5=Where'd you hide the Body? - James McMurtry
TTITLE6=Wanderlust - Mark Knopfler
TTITLE7=Speedway of Nazareth - Mark Knopfler
TTITLE8=Rough and Rowdy Days - Waylon Jannings
TTITLE9=City of New Orleans - Willie Nelson
TTITLE10=Highwayman - The Highwaymen
TTITLE11=Seven Bridges Road - Dolly Parton
TTITLE12=Angel from Montgomery - Bonnie Raitt/John Prine
TTITLE13=We are the Lonely - John Prine
TTITLE14=Tennessee Stud - Doc Watson/Merle Haggard
TTITLE15=Siz Days on the Road - Dave Dudley
TTITLE16=Super Surprise Bonus Hemi-Cuda Track
EXTD=
EXTT0=
EXTT1=
EXTT2=
EXTT3=
EXTT4=
EXTT5=
EXTT6=
EXTT7=
EXTT8=
EXTT9=
EXTT10=
EXTT11=
EXTT12=
EXTT13=
EXTT14=
EXTT15=
EXTT16=
PLAYORDER=
